<svg xmlns="http://www.w3.org/2000/svg" xmlns:xlink="http://www.w3.org/1999/xlink" preserveAspectRatio="none" viewBox="0 0 2000 300">
  <defs>
    <path id="c" fill="#fff" d="M0 0h2000v300H0z"/>
  </defs>
  <g mask="url(&quot;#a&quot;)">
    <g fill="none" mask="url(&quot;#b&quot;)">
      <path stroke="rgba(252, 163, 17, 1)" stroke-width="4.5" d="M1013-13v54"/>
      <path fill="rgba(252, 163, 17, 1)" d="M1006 41a7 7 0 1 0 13 0 7 7 0 1 0-13 0z"/>
      <path stroke="rgba(252, 163, 17, 1)" stroke-width="4.5" d="M986-13v81"/>
      <path fill="rgba(252, 163, 17, 1)" d="M979 68a7 7 0 1 0 13 0 7 7 0 1 0-13 0z"/>
      <path stroke="rgba(252, 163, 17, 1)" stroke-width="4.5" d="m1040 68-27 27-27 27m54-135V95"/>
      <path fill="rgba(252, 163, 17, 1)" d="M1033 95a7 7 0 1 0 13 0 7 7 0 1 0-13 0zm-54 27a7 7 0 1 0 13 0 7 7 0 1 0-13 0z"/>
      <path stroke="rgba(252, 163, 17, 1)" stroke-width="4.5" d="m932 41 27 27m0-54v27m0-54v27l-27 27v54"/>
      <path fill="rgba(252, 163, 17, 1)" d="M925 95a7 7 0 1 0 13 0 7 7 0 1 0-13 0zm27-27a7 7 0 1 0 13 0 7 7 0 1 0-13 0zm0-27a7 7 0 1 0 13 0 7 7 0 1 0-13 0z"/>
      <path stroke="rgba(252, 163, 17, 1)" stroke-width="4.5" d="m1067 95 27 27v27m-27-81 27 27 27 27m-54 0-27 27m27-162v162"/>
      <path fill="rgba(252, 163, 17, 1)" d="M1060 149a7 7 0 1 0 13 0 7 7 0 1 0-13 0zm27 0a7 7 0 1 0 13 0 7 7 0 1 0-13 0zm27-27a7 7 0 1 0 13 0 7 7 0 1 0-13 0zm-81 27a7 7 0 1 0 13 0 7 7 0 1 0-13 0z"/>
      <path stroke="rgba(252, 163, 17, 1)" stroke-width="4.5" d="M932-13v27l-27 27v27"/>
      <path fill="rgba(252, 163, 17, 1)" d="M898 68a7 7 0 1 0 13 0 7 7 0 1 0-13 0z"/>
      <path stroke="rgba(252, 163, 17, 1)" stroke-width="4.5" d="M1094-13v54"/>
      <path fill="rgba(252, 163, 17, 1)" d="M1087 41a7 7 0 1 0 13 0 7 7 0 1 0-13 0z"/>
      <path stroke="rgba(252, 163, 17, 1)" stroke-width="4.5" d="m878 95 27 27v27m0-162v27l-27 27v81"/>
      <path fill="rgba(252, 163, 17, 1)" d="M871 122a7 7 0 1 0 13 0 7 7 0 1 0-13 0zm27 27a7 7 0 1 0 13 0 7 7 0 1 0-13 0z"/>
      <path stroke="rgba(252, 163, 17, 1)" stroke-width="4.5" d="M1121-13v81"/>
      <path fill="rgba(252, 163, 17, 1)" d="M1114 68a7 7 0 1 0 13 0 7 7 0 1 0-13 0z"/>
      <path stroke="rgba(252, 163, 17, 1)" stroke-width="4.5" d="M878-13v27"/>
      <path fill="rgba(252, 163, 17, 1)" d="M871 14a7 7 0 1 0 13 0 7 7 0 1 0-13 0z"/>
      <path stroke="rgba(252, 163, 17, 1)" stroke-width="4.5" d="M1148-13v81"/>
      <path fill="rgba(252, 163, 17, 1)" d="M1141 68a7 7 0 1 0 13 0 7 7 0 1 0-13 0z"/>
      <path stroke="rgba(252, 163, 17, 1)" stroke-width="4.5" d="m851 95-27 27v27m27-162v162"/>
      <path fill="rgba(252, 163, 17, 1)" d="M844 149a7 7 0 1 0 13 0 7 7 0 1 0-13 0zm-27 0a7 7 0 1 0 13 0 7 7 0 1 0-13 0z"/>
      <path stroke="rgba(252, 163, 17, 1)" stroke-width="4.5" d="M1175-13v54"/>
      <path fill="rgba(252, 163, 17, 1)" d="M1168 41a7 7 0 1 0 13 0 7 7 0 1 0-13 0z"/>
      <path stroke="rgba(252, 163, 17, 1)" stroke-width="4.5" d="M824-13v54"/>
      <path fill="rgba(252, 163, 17, 1)" d="M817 41a7 7 0 1 0 13 0 7 7 0 1 0-13 0z"/>
      <path stroke="rgba(252, 163, 17, 1)" stroke-width="4.5" d="m1229 68-27 27v54m0-162v54l27 27v27"/>
      <path fill="rgba(252, 163, 17, 1)" d="M1222 95a7 7 0 1 0 13 0 7 7 0 1 0-13 0zm-27 54a7 7 0 1 0 13 0 7 7 0 1 0-13 0z"/>
      <path stroke="rgba(252, 163, 17, 1)" stroke-width="4.5" d="m797 41-27 27m27-81v81"/>
      <path fill="rgba(252, 163, 17, 1)" d="M790 68a7 7 0 1 0 13 0 7 7 0 1 0-13 0zm-27 0a7 7 0 1 0 13 0 7 7 0 1 0-13 0z"/>
      <path stroke="rgba(252, 163, 17, 1)" stroke-width="4.5" d="M1229-13v54l27 27v27"/>
      <path fill="rgba(252, 163, 17, 1)" d="M1249 95a7 7 0 1 0 13 0 7 7 0 1 0-13 0z"/>
      <path stroke="rgba(252, 163, 17, 1)" stroke-width="4.5" d="M770-13v27"/>
      <path fill="rgba(252, 163, 17, 1)" d="M763 14a7 7 0 1 0 13 0 7 7 0 1 0-13 0z"/>
      <path stroke="rgba(252, 163, 17, 1)" stroke-width="4.5" d="m1256 14 27 27m0 54 27 27v27m-54-162v54l27 27v54"/>
      <path fill="rgba(252, 163, 17, 1)" d="M1276 122a7 7 0 1 0 13 0 7 7 0 1 0-13 0zm0-81a7 7 0 1 0 13 0 7 7 0 1 0-13 0zm27 108a7 7 0 1 0 13 0 7 7 0 1 0-13 0z"/>
      <path stroke="rgba(252, 163, 17, 1)" stroke-width="4.5" d="M743 68v81m0-162v81l27 27"/>
      <path fill="rgba(252, 163, 17, 1)" d="M763 95a7 7 0 1 0 13 0 7 7 0 1 0-13 0zm-27 54a7 7 0 1 0 13 0 7 7 0 1 0-13 0z"/>
      <path stroke="rgba(252, 163, 17, 1)" stroke-width="4.5" d="M716-13v54"/>
      <path fill="rgba(252, 163, 17, 1)" d="M709 41a7 7 0 1 0 13 0 7 7 0 1 0-13 0z"/>
      <path stroke="rgba(252, 163, 17, 1)" stroke-width="4.5" d="M1310-13v81"/>
      <path fill="rgba(252, 163, 17, 1)" d="M1303 68a7 7 0 1 0 13 0 7 7 0 1 0-13 0z"/>
      <path stroke="rgba(252, 163, 17, 1)" stroke-width="4.5" d="M689-13v54"/>
      <path fill="rgba(252, 163, 17, 1)" d="M682 41a7 7 0 1 0 13 0 7 7 0 1 0-13 0z"/>
      <path stroke="rgba(252, 163, 17, 1)" stroke-width="4.5" d="M1337-13v54"/>
      <path fill="rgba(252, 163, 17, 1)" d="M1330 41a7 7 0 1 0 13 0 7 7 0 1 0-13 0z"/>
      <path stroke="rgba(252, 163, 17, 1)" stroke-width="4.5" d="m608 68 27 27v54m0-108v27l27 27v54m0-135v27m0-54v27l-27 27-27 27v54"/>
      <path fill="rgba(252, 163, 17, 1)" d="M601 122a7 7 0 1 0 13 0 7 7 0 1 0-13 0zm27 27a7 7 0 1 0 13 0 7 7 0 1 0-13 0zm27 0a7 7 0 1 0 13 0 7 7 0 1 0-13 0zm0-108a7 7 0 1 0 13 0 7 7 0 1 0-13 0z"/>
      <path stroke="rgba(252, 163, 17, 1)" stroke-width="4.5" d="m1391 41-27 27v54m27-27 27 27v27m-54-135v27m0-54v27l27 27v81"/>
      <path fill="rgba(252, 163, 17, 1)" d="M1384 122a7 7 0 1 0 13 0 7 7 0 1 0-13 0zm-27 0a7 7 0 1 0 13 0 7 7 0 1 0-13 0zm54 27a7 7 0 1 0 13 0 7 7 0 1 0-13 0zm-54-108a7 7 0 1 0 13 0 7 7 0 1 0-13 0z"/>
      <path stroke="rgba(252, 163, 17, 1)" stroke-width="4.5" d="M635-13v27l-27 27-27 27v81"/>
      <path fill="rgba(252, 163, 17, 1)" d="M574 149a7 7 0 1 0 13 0 7 7 0 1 0-13 0z"/>
      <path stroke="rgba(252, 163, 17, 1)" stroke-width="4.5" d="M1391-13v27"/>
      <path fill="rgba(252, 163, 17, 1)" d="M1384 14a7 7 0 1 0 13 0 7 7 0 1 0-13 0z"/>
      <path stroke="rgba(252, 163, 17, 1)" stroke-width="4.5" d="M1418-13v81"/>
      <path fill="rgba(252, 163, 17, 1)" d="M1411 68a7 7 0 1 0 13 0 7 7 0 1 0-13 0z"/>
      <path stroke="rgba(252, 163, 17, 1)" stroke-width="4.5" d="M581-13v54l-27 27v54"/>
      <path fill="rgba(252, 163, 17, 1)" d="M547 122a7 7 0 1 0 13 0 7 7 0 1 0-13 0z"/>
      <path stroke="rgba(252, 163, 17, 1)" stroke-width="4.5" d="M1445-13v135"/>
      <path fill="rgba(252, 163, 17, 1)" d="M1438 122a7 7 0 1 0 13 0 7 7 0 1 0-13 0z"/>
      <path stroke="rgba(252, 163, 17, 1)" stroke-width="4.5" d="M554-13v54l-27 27v27"/>
      <path fill="rgba(252, 163, 17, 1)" d="M520 95a7 7 0 1 0 13 0 7 7 0 1 0-13 0z"/>
      <path stroke="rgba(252, 163, 17, 1)" stroke-width="4.5" d="m1472 14 27 27v81m-27-135v162"/>
      <path fill="rgba(252, 163, 17, 1)" d="M1465 149a7 7 0 1 0 13 0 7 7 0 1 0-13 0zm27-27a7 7 0 1 0 13 0 7 7 0 1 0-13 0z"/>
      <path stroke="rgba(252, 163, 17, 1)" stroke-width="4.5" d="m527 14-27 27-27 27v54m27-27v54m27-162v54l-27 27v27l27 27 27 27"/>
      <path fill="rgba(252, 163, 17, 1)" d="M547 149a7 7 0 1 0 13 0 7 7 0 1 0-13 0zm-81-27a7 7 0 1 0 13 0 7 7 0 1 0-13 0zm27 27a7 7 0 1 0 13 0 7 7 0 1 0-13 0z"/>
    </g>
  </g>
  <defs>
    <mask id="a">
      <use xlink:href="#c"/>
    </mask>
    <mask id="b">
      <use xlink:href="#c"/>
      <path d="M1009 41a3 3 0 1 0 7 0 3 3 0 1 0-7 0zm-27 27a3 3 0 1 0 7 0 3 3 0 1 0-7 0zm54 27a3 3 0 1 0 7 0 3 3 0 1 0-7 0zm-54 27a3 3 0 1 0 7 0 3 3 0 1 0-7 0zm-54-27a3 3 0 1 0 7 0 3 3 0 1 0-7 0zm27-27a3 3 0 1 0 7 0 3 3 0 1 0-7 0zm0-27a3 3 0 1 0 7 0 3 3 0 1 0-7 0zm108 108a3 3 0 1 0 7 0 3 3 0 1 0-7 0zm27 0a3 3 0 1 0 7 0 3 3 0 1 0-7 0zm27-27a3 3 0 1 0 7 0 3 3 0 1 0-7 0zm-81 27a3 3 0 1 0 7 0 3 3 0 1 0-7 0zM901 68a3 3 0 1 0 7 0 3 3 0 1 0-7 0zm189-27a3 3 0 1 0 7 0 3 3 0 1 0-7 0zm-216 81a3 3 0 1 0 7 0 3 3 0 1 0-7 0zm27 27a3 3 0 1 0 7 0 3 3 0 1 0-7 0zm216-81a3 3 0 1 0 7 0 3 3 0 1 0-7 0zM874 14a3 3 0 1 0 7 0 3 3 0 1 0-7 0zm270 54a3 3 0 1 0 7 0 3 3 0 1 0-7 0zm-297 81a3 3 0 1 0 7 0 3 3 0 1 0-7 0zm-27 0a3 3 0 1 0 7 0 3 3 0 1 0-7 0zm351-108a3 3 0 1 0 7 0 3 3 0 1 0-7 0zm-351 0a3 3 0 1 0 7 0 3 3 0 1 0-7 0zm405 54a3 3 0 1 0 7 0 3 3 0 1 0-7 0zm-27 54a3 3 0 1 0 7 0 3 3 0 1 0-7 0zM793 68a3 3 0 1 0 7 0 3 3 0 1 0-7 0zm-27 0a3 3 0 1 0 7 0 3 3 0 1 0-7 0zm486 27a3 3 0 1 0 7 0 3 3 0 1 0-7 0zM766 14a3 3 0 1 0 7 0 3 3 0 1 0-7 0zm513 108a3 3 0 1 0 7 0 3 3 0 1 0-7 0zm0-81a3 3 0 1 0 7 0 3 3 0 1 0-7 0zm27 108a3 3 0 1 0 7 0 3 3 0 1 0-7 0zM766 95a3 3 0 1 0 7 0 3 3 0 1 0-7 0zm-27 54a3 3 0 1 0 7 0 3 3 0 1 0-7 0zM712 41a3 3 0 1 0 7 0 3 3 0 1 0-7 0zm594 27a3 3 0 1 0 7 0 3 3 0 1 0-7 0zM685 41a3 3 0 1 0 7 0 3 3 0 1 0-7 0zm648 0a3 3 0 1 0 7 0 3 3 0 1 0-7 0zm-729 81a3 3 0 1 0 7 0 3 3 0 1 0-7 0zm27 27a3 3 0 1 0 7 0 3 3 0 1 0-7 0zm27 0a3 3 0 1 0 7 0 3 3 0 1 0-7 0zm0-108a3 3 0 1 0 7 0 3 3 0 1 0-7 0zm729 81a3 3 0 1 0 7 0 3 3 0 1 0-7 0zm-27 0a3 3 0 1 0 7 0 3 3 0 1 0-7 0zm54 27a3 3 0 1 0 7 0 3 3 0 1 0-7 0zm-54-108a3 3 0 1 0 7 0 3 3 0 1 0-7 0zM577 149a3 3 0 1 0 7 0 3 3 0 1 0-7 0zm810-135a3 3 0 1 0 7 0 3 3 0 1 0-7 0zm27 54a3 3 0 1 0 7 0 3 3 0 1 0-7 0zm-864 54a3 3 0 1 0 7 0 3 3 0 1 0-7 0zm891 0a3 3 0 1 0 7 0 3 3 0 1 0-7 0zM523 95a3 3 0 1 0 7 0 3 3 0 1 0-7 0zm945 54a3 3 0 1 0 7 0 3 3 0 1 0-7 0zm27-27a3 3 0 1 0 7 0 3 3 0 1 0-7 0zm-945 27a3 3 0 1 0 7 0 3 3 0 1 0-7 0zm-81-27a3 3 0 1 0 7 0 3 3 0 1 0-7 0zm27 27a3 3 0 1 0 7 0 3 3 0 1 0-7 0z"/>
    </mask>
  </defs>
</svg>
