<svg version="1.2" xmlns="http://www.w3.org/2000/svg" viewBox="0 0 561 123" width="561" height="123"><style></style><path fill="#14213d" aria-label="Personio
"  d="m22.13 113h-12.08v-104.34h38.2q11.48 0 18.88 3.77q7.4 3.63 11.02 11.18q3.63 7.4 3.63 18.87q0 11.33-3.63 19.33q-3.62 7.85-11.02 12.08q-7.4 4.08-18.88 4.08h-26.12zm0-93.77v48.17h26.12q11.18 0 16.16-6.5q4.98-6.49 4.98-18.42q0-12.08-4.98-17.67q-4.98-5.58-16.16-5.58zm100.72 95.28q-11.32 0-17.97-4.38q-6.49-4.38-9.36-12.99q-2.87-8.6-2.87-21.44q0-14.34 3.93-22.95q3.92-8.76 11.02-12.68q7.1-4.08 16.76-4.08q15.1 0 22.8 8.45q7.7 8.31 7.7 26.88l-0.6 8.91h-49.68q0.15 11.78 4.38 17.82q4.23 6.04 15.25 6.04q4.23 0 9.21-0.15q5.13-0.3 10.12-0.61q4.98-0.3 8.45-0.6l0.31 9.21q-3.63 0.61-8.91 1.21q-5.14 0.6-10.57 1.06q-5.44 0.3-9.97 0.3zm-18.27-43.79h38.5q0-13.89-4.53-19.33q-4.37-5.59-14.19-5.59q-9.51 0-14.65 5.74q-5.13 5.74-5.13 19.18zm79.43 42.28h-11.63v-75.5h11.63v10.12q2.86-1.97 7.24-4.23q4.38-2.42 9.67-4.53q5.28-2.12 10.57-3.02v11.93q-5.14 1.05-10.42 2.87q-5.29 1.66-9.82 3.62q-4.38 1.96-7.24 3.47zm64.32 1.51q-3.47 0-8.45-0.45q-4.84-0.45-9.67-1.06q-4.83-0.75-8.61-1.36l0.61-10.11q3.77 0.45 8.45 1.05q4.84 0.61 9.37 1.06q4.53 0.3 7.24 0.3q6.2 0 10.27-1.06q4.08-1.2 6.19-3.92q2.12-2.72 2.12-7.7q0-3.78-1.66-5.89q-1.51-2.11-5.89-3.47q-4.23-1.36-12.38-2.57q-8.46-1.36-14.2-3.32q-5.59-2.12-8.3-6.19q-2.72-4.08-2.72-11.63q0-8.46 3.92-13.29q3.93-4.83 10.12-6.79q6.34-2.12 13.14-2.12q4.23 0 9.21 0.46q5.13 0.45 9.97 1.2q4.83 0.61 8.3 1.21l-0.3 10.12q-3.63-0.61-8.46-1.06q-4.83-0.6-9.66-0.9q-4.83-0.46-8.46-0.46q-4.53 0-8.15 1.06q-3.63 0.91-5.74 3.32q-2.11 2.42-2.11 6.8q0 3.32 1.51 5.43q1.51 1.97 5.73 3.32q4.23 1.36 12.24 2.72q9.36 1.51 14.94 3.78q5.74 2.26 8.31 6.34q2.57 4.08 2.57 11.48q0 13.28-7.86 18.57q-7.85 5.13-21.59 5.13zm75.8 0q-12.68 0-19.78-4.38q-6.94-4.38-9.81-13.28q-2.72-8.91-2.72-22.5q0-12.99 3.02-21.45q3.17-8.45 10.27-12.68q7.09-4.23 19.02-4.23q12.08 0 19.18 4.23q7.1 4.23 10.12 12.68q3.17 8.46 3.17 21.45q0 13.59-2.87 22.5q-2.72 8.9-9.82 13.28q-6.94 4.38-19.78 4.38zm0-10.11q8.76 0 13.14-3.02q4.38-3.18 5.74-9.82q1.51-6.64 1.51-17.21q0-10.42-1.81-16.61q-1.82-6.19-6.19-8.91q-4.38-2.72-12.39-2.72q-7.85 0-12.38 2.72q-4.38 2.72-6.19 8.91q-1.81 6.19-1.81 16.61q0 10.57 1.36 17.21q1.51 6.64 5.89 9.82q4.38 3.02 13.13 3.02zm62.52 8.6h-11.63v-75.5h11.63v5.29q2.56-1.51 6.34-3.02q3.93-1.51 8.3-2.57q4.38-1.21 8.46-1.21q10.42 0 15.86 3.78q5.58 3.62 7.7 11.78q2.11 8.15 2.11 21.44v40.01h-11.78v-39.56q0-9.81-1.21-15.7q-1.05-5.89-4.53-8.46q-3.32-2.72-10.26-2.72q-3.78 0-7.86 0.91q-3.92 0.75-7.39 2.11q-3.48 1.21-5.74 2.42zm81.24 0h-11.63v-75.5h11.63zm0-92.11h-11.63v-13.59h11.63zm50.73 93.62q-12.68 0-19.78-4.38q-6.95-4.38-9.81-13.29q-2.72-8.91-2.72-22.5q0-12.98 3.02-21.44q3.17-8.46 10.27-12.68q7.09-4.23 19.02-4.23q12.08 0 19.18 4.23q7.1 4.22 10.12 12.68q3.17 8.46 3.17 21.44q0 13.59-2.87 22.5q-2.72 8.91-9.82 13.29q-6.94 4.38-19.78 4.38zm0-10.12q8.76 0 13.14-3.02q4.38-3.17 5.74-9.81q1.51-6.65 1.51-17.22q0-10.42-1.82-16.61q-1.81-6.19-6.19-8.91q-4.38-2.71-12.38-2.71q-7.85 0-12.38 2.71q-4.38 2.72-6.19 8.91q-1.81 6.19-1.81 16.61q0 10.57 1.36 17.22q1.51 6.64 5.88 9.81q4.38 3.02 13.14 3.02z" /></svg>