<svg version="1.2" xmlns="http://www.w3.org/2000/svg" viewBox="0 0 288 895" width="288" height="895"><defs><linearGradient id="P" gradientUnits="userSpaceOnUse"/><radialGradient id="g1" cx="132.4" cy="122.2" r="44.6" href="#P"><stop stop-color="#ffb880"/><stop offset=".8" stop-color="#fcb276"/><stop offset="1" stop-color="#fa9747"/></radialGradient><linearGradient id="g2" x1="140" y1="127.4" x2="137.7" y2="104.5" href="#P"><stop offset="0" stop-color="#f7c196"/><stop offset=".1" stop-color="#f3ccae"/><stop offset=".3" stop-color="#f7c196"/><stop offset="1" stop-color="#fdb57c"/></linearGradient></defs><style>.A{fill:#431401}.B{fill:#6b2503}.C{fill:#7d2d03}.D{fill:#511702}.E{fill:#191c37}.F{fill:#fea55c}.G{fill:#e27921}.H{fill:#ccc}.I{fill:#069}.J{fill:#d71414}.K{fill:#bf1313}.L{fill:#fff}.M{fill:#272a49}.N{fill:#3e4164}.O{fill:#fca056}.P{fill:#bf7334}.Q{fill:#fcb276}.R{fill:url(#g1)}.S{fill:url(#g2)}.T{fill:#5b3208}.U{fill:#9c571e}.V{fill:#7b400c}.W{fill:#381c00}.X{fill:#3a0909}.Y{fill:none;stroke:#300;stroke-linecap:round;stroke-linejoin:round;stroke-width:2}.Z{fill:#e5771f}.a{fill:#e98c42}.b{fill:#c95737}.c{fill:#e7893b}.d{fill:#cb7229}</style><path fill-rule="evenodd" class="A" d="m224.6 841.2q3.8 5.6 6.2 13.3q1.3 4.4 2.2 9.3q-3.5 7.9-16.7 11q-20.9 1.9-26.2-13l6.3-18.4q14.1-5.1 28.2-2.2zm-18.4 24l6.1-4.1l13 2.9l1.4-7.6l-8.6-9.2l-14-0.1l-6.6 11.3z"/><path class="B" d="m218.1 847.2l8.6 9.2l-1.4 7.6l-13-2.9l-6.1 4.1l-8.7-6.8l6.6-11.3z"/><path class="C" d="m96.7 823.9q7.9-0.4 15.3 0q15 27.7-30.6 33.6q-27.3 3.7-24.8-3q26.6-10.3 40.1-30.6z"/><path class="D" d="m81.4 857.5q45.6-5.9 30.6-33.6q9.5 0.5 18 2.2q2.1 10.5-1.4 23.2q-27.3 11.9-50.8 15.3q-13.5 2.6-24.9-1.3q-4.9-2-0.6-7.3q2.2-0.7 4.3-1.5q-2.5 6.7 24.8 3z"/><path class="E" d="m240.6 834.5l-9.7 17.9l-15.5-3.2l-23.9 6.3l-5-13.4l5.2-6.1l-6.1-4.1q-7.1-126.7-26.1-255.2q-15.2-79.6-22.4-78.7q-8.4 21.8-5 138.1q4.2 101.6 3.4 201.2l-7.4 11.1l-35-3.9l-13.4-8.2v-13.9l6-4l-3.8-5.4l4.3-11q-1.6-136.6-15.2-226.4l-8.5-92.7q-1.9-20.7 5-51.2l146.9-10.7q7 34.1 5.5 79.5z"/><path class="F" d="m146.3 183.9q10.5-9.5 19.8-15q1.4 12.3 6.3 14.3q-14.1 24.3-42.8 34.2q-16.9-14.3-24.5-31.6q3.7-1.4 3.6-17.8l19 15.9q9.3 2.2 18.6 0z"/><path class="G" d="m106.3 133q30.1 1.7 60.6-0.3q-2.2 23.5-0.8 36.2q-9.3 5.5-19.8 15q-9.3 2.2-18.6 0l-19-15.9q0-12.9-2.4-35z"/><path class="H" d="m122.3 330.3q-0.8-52.7 7.4-121.2q25.4 0.3 50.2-23.6q-35.2 78.5-57.6 144.8zm0 0q-0.3 1-0.6 1.9q-13.2-68.9-33.3-139.3q20.8 15.9 41.3 16.2q-8.2 68.5-7.4 121.2z"/><path class="I" d="m129.7 209.1l-4.9 60.6l-2.5 60.6v0.1l-0.1-0.1l-0.4-13.9l0.1-19.3l1.2-27.6l1.6-19.5l4.9-40.9q0-0.1 0.1 0q0.1 0 0 0z"/><path class="J" d="m141.9 347.4q-13 14.5-18.8 25.4q-10.6-10.2-18.3-27.3q5.9-54.4 18.3-116.6h12.1q7 65.8 6.7 118.5z"/><path class="K" d="m117.2 210.3q12.2-1.8 25.4 0q2.7 8.8-7.4 18.6h-12.1q-8.4-7.1-5.9-18.6z"/><path class="L" d="m88 193l19.3-11.8l22.6 28.2q-17 8.1-31.4 24.2q-0.1 0.1-0.2 0.3zm43.4 17.2q0 0 0 0h-0.1q-0.7-0.4-1.5-0.8l38.5-30.7q10.4 4.6 14.3 10.2l-16.8 48.7q-0.5-0.5-0.9-1.1q-14.5-16.1-33.5-26.3z"/><g style="opacity:.3"><path  d="m100.2 239.2l-1.7-5.6q14.4-16.1 31.4-24.2q0.8 0.4 1.5 0.8q-18 10.7-31.2 29zm31.2-29q19 10.1 33.5 26.3v3.3q-16.7-13.5-33.5-29.6z"/></g><path class="E" d="m123.9 336.8q3.7 63.5 5.5 109.4q-2.4-5.2-2.7-11.4l-3.2-99.4l0.3-0.5q0 1 0.1 1.9z"/><path class="M" d="m126.7 434.8q-5.8 27.4-34.4 36.3q-21.2 6-37.2-14.9q21.9-78.3 14.9-132.7q-7.4-56-25-107.9l37.7-20l39.2 137.9l72.9-145l49.8 28.9q-21.3 47.4-30.5 83.6q-8.7 34.4-6.3 57l6.9 63.1q3.2 13.6 7.3 33.7q0 0 0 0q-28.3 21.7-61.3 12.9q-24.3-6.5-31.2-21.2q-0.1-0.1-0.1-0.3q-1.8-45.9-5.5-109.4q-0.1-0.9-0.1-1.9l-0.3 0.5z"/><path class="E" d="m75.4 242.3l35.2 71.1l-37.7-72.1l14.2-10.3l-19.8-29.7l21.7 31.1zm83 47l35.2-48.2l-13-14.6l26.2-29l-22.9 30.2l11.9 12.4z"/><path class="N" d="m207.9 196q0.1 0 0.2 0l-1.3 1.5l-26.3 29l13 14.5l-35.2 48.2l-35.6 47.8l-12.1-23.6l-35.2-71.1l13.6-9.9l-21.7-31.1l31.3-16.9q1.1 0 9.4 36.6q8.4 36.7 15.3 106.9q0-0.3 0.1-0.5q20.5-71.2 50-147.4q2.4 0.5 10.2 3.3q7.9 2.8 24.3 12.7z"/><path fill-rule="evenodd" class="O" d="m91.9 103.4q2.2 4.3 3.4 10.6q1.3 6.4 0.8 11.1q-0.4 4.8-2.4 5.2q-1.8 0.3-4-3.9q-2.2-4.3-3.5-10.6q-1.2-6.4-0.8-11.2q0.5-4.7 2.4-5.1q1.9-0.4 4.1 3.9zm-2.7 9q1-1.3 0.7-2.8q0.3 1.5-0.7 2.8q-0.6 0.7-0.7 1q0 0.2 0.2 0.6q0.1 0.2 0.4 0.6q0.6 0.6 1.7 2.1q0.1 0.2 0.9 0.9q0.4 0.5 0.7 0.9q1 1.1 0.6 2.3q-0.2 0.5-0.4 0.6q-0.4 0.2-0.7 0.1q-1-0.3-2-1.9q1 1.6 2 1.9q0.3 0.1 0.7-0.1q0.2-0.1 0.4-0.6q0.4-1.2-0.6-2.3q-0.3-0.4-0.7-0.9q-0.8-0.7-0.9-0.9q-1.1-1.5-1.7-2.1q-0.3-0.4-0.4-0.6q-0.2-0.4-0.2-0.6q0.1-0.3 0.7-1z"/><path class="P" d="m89.9 109.6q0.1-0.1 0.1 0v0.1v0.1h0.1v0.3v0.2v0.1v0.4l-0.1 0.7l-0.1 0.1v0.1v0.1v0.1l-0.1 0.1l-0.1 0.1l-0.1 0.4h-0.1l-0.5 0.8v0.1v0.1l0.2 0.4l2 2.5h0.1v0.1h0.1l1.3 1.5l0.1 0.1v0.1h0.1l0.1 0.1v0.1l0.1 0.1l0.3 0.7l0.2 0.7v0.4l-0.1 0.6h-0.1v0.1l-0.1 0.1l-0.1 0.2v0.1l-0.1 0.1l-0.1 0.1l-0.1 0.1h-0.1l-0.1 0.1h-0.1h-0.1v0.1h-0.1h-0.1h-0.2h-0.1l-0.1-0.1h-0.1h-0.1v-0.1h-0.1l-0.2-0.1h-0.1l-0.1-0.1l-0.1-0.1l-0.1-0.1l-0.2-0.2l-0.6-0.8l-0.3-0.7v-0.1h0.1l0.2 0.3l0.8 0.8l0.2 0.1l0.1 0.1l0.1 0.1l0.2 0.1h0.1v0.1h0.1h0.1h0.2v0.1l0.1-0.1h0.1l0.1-0.1v-0.1h0.1v-0.1l0.1-0.1v-0.1v-0.3v-0.4l-0.3-0.7l-0.1-0.1l-0.1-0.1l-0.1-0.1v-0.1h-0.1l-1.3-1.4l-0.1-0.1l-0.1-0.2h-0.1v-0.1l-0.1-0.1l-1.5-2l-0.1-0.1l-0.2-0.5h-0.1v-0.2l-0.2-0.3v-0.2v-0.3l0.1-0.2l0.2-0.4l0.7-0.8l0.1-0.1l0.1-0.2l0.1-0.1l0.2-0.4l0.1-0.4v-0.1l0.2-0.5v-0.2v-0.1v-0.2z"/><path fill-rule="evenodd" class="Q" d="m181.7 115.8q-1.3 6.3-3.5 10.6q-2.2 4.2-4.1 3.9q-1.9-0.4-2.3-5.2q-0.5-4.7 0.8-11.1q1.2-6.3 3.4-10.6q2.2-4.3 4.1-3.9q1.9 0.4 2.3 5.1q0.5 4.8-0.7 11.2zm-4.4-2.9q0-1 0.2-1.4q0.3-0.5 1.5-1.1q1.1-0.5 1.3-1.1q-0.2 0.6-1.3 1.1q-1.2 0.6-1.5 1.1q-0.2 0.4-0.2 1.4q0.1 2.8 0.1 3.4q0 2-0.2 3.4q-0.1 1-0.4 1.4q-0.3 0.2-0.6 0.3q-0.4 0.1-0.7-0.1l-0.4-0.5l-1.3-3.1l1.3 3.1l0.4 0.5q0.3 0.2 0.7 0.1q0.3-0.1 0.6-0.3q0.3-0.4 0.4-1.4q0.2-1.4 0.2-3.4q0-0.6-0.1-3.4z"/><path class="P" d="m180.3 109.3q0.1 0 0.1 0l-0.1 0.2l-0.1 0.1l-0.2 0.3l-0.2 0.2l-1.5 1v0.1l-0.1 0.1h-0.1v0.1l-0.1 0.1h-0.1v0.1v0.1l-0.1 0.5v0.6v0.2l0.2 3.9l-0.2 2.8l-0.1 0.1v0.1l-0.2 0.8l-0.1 0.3q-0.2 0.3-0.3 0.4q-0.2 0.2-0.4 0.3l-0.4 0.2h-0.1h-0.4l-0.3-0.1l-0.2-0.1l-0.1-0.2l-0.4-0.5v-0.1h-0.1l-0.5-1.6v-0.2l-0.4-1.4q-0.1 0 0 0q0-0.1 0 0l1.6 2.8v0.1v-0.1l0.4 0.5h0.1h0.1l0.3-0.2h0.1v-0.1l0.1-0.1v-0.2l0.2-0.7v-0.1l0.1-0.9v-6.1l0.1-0.1v-0.1l0.1-0.7l0.2-0.4l0.1-0.2l0.1-0.1l0.1-0.1h0.1v-0.1l0.2-0.1l0.8-0.4l0.4-0.2l0.2-0.1h0.1l0.3-0.2l0.5-0.3l0.2-0.2q0-0.1 0 0z"/><path class="R" d="m182.1 85.2q0 13.7-7.9 24.9q-0.2 12.3-5.6 38l-22.7 20.2q-12 2.5-24.9 0q-17.4-14.4-23-23.4l-6.5-36.5q-5.9-10.2-5.9-23.2q0-18.3 14.1-31.2q14.2-12.9 34.2-12.9q20 0 34.1 12.9q14.1 12.9 14.1 31.2z"/><path class="O" d="m140.4 45.8q-5.6-1-11.3-0.5q6.5 0.3 11.3 0.5zm1.7 62.7q-2.6-4-0.2-9.1h23l-4.2 8.1q-8.1-3.8-18.6 1zm-12.5 20.9l-4.2-1l1.3-18.4q-5.5-4.4-17.1-2.3q-3 0.5-6.3 1.4l-2.7-8.4l5.8-3.8l12.9 0.3l8.2 5.2z"/><path class="S" d="m134.2 104.8l4.7 22.8q-0.8 1-4.9 1.8q-0.9-15.4 0.2-24.6z"/><path class="Q" d="m165 133.7l-6.1 6.7l-14.4-17.5l-0.2-6.7q10.1 2.2 21.1-3.7h2.7z"/><path fill-rule="evenodd" class="T" d="m175.3 85.5q-0.2-1.2-0.5-1.1q-5.9-24.4-34.8-14.1q-29.4 4.1-26.5-19.2q0.7-6.2 1.6-10.1q-0.1 0-0.2 0.1q-1.7 4.6-2.7 8.5q-0.1 0.1-0.2 0.1q-4.1 1.4-6.6 4.6q-2.4 3.1-3.8 9.2q-2 7.9-2.8 9.9q-1.3 3.3-3.4 4.5q-1.3 0.9-3.1 1.2q-1.1 0.2-3.4 0.4q-2.2 0.1-3.5-0.1q-1.9-0.4-2.9-1.5q-0.5-0.6-0.8-1.4q3.8-23.1 22.4-33.2q0.8-3.2-6-0.3q9-8.1 17.3-3.6q0.4 0.2 0.8 0.4q1.4-1.7 4-3q6.6-3.3 20.7-3.5q19.4-0.4 38.6 20.7q-5.2-3.4-7.7-3q8.9 7.2 9.9 14.4q1.9 6.7 2.6 13.3q-0.6 2.9-1.7 7.2q-1.1 4.3-3.6-3.3l-0.2-1.9q-0.2-1.1-0.7-2.8l-1-3.6l-1.2-2.9l-0.1-0.1l-0.3-0.6l-0.2-0.3v-0.1l-0.1 0.1zm-22.4-41.5l0.1 0.1h0.3l4.1 1.3h0.2l0.2 0.1l1.7 0.6h0.1q0 0 0-0.1l-1.5-1.4l-3-1.9l-3.3-1.6l-0.3-0.1h-0.2l-0.7-0.3l-2-0.5l-0.2-0.1h-0.1l-0.7-0.1h-0.1l-0.1-0.1l-0.6-0.1h-0.1h-0.1l-1.7-0.2l-3.7-0.2q-1.7 0.2-2.4 0.3h-0.4l-3.6 0.9l-0.8 0.2l-1.7 0.8v0.1l5.5 0.1q0.1 0 0.5 0h0.1h0.2h0.2q0.7 0 2.4 0.1l0.4 0.1h0.2l5.1 0.7h0.1h0.1l5 1.1h0.1zm-18.4 20.1l-2.4 0.2h-0.3h-0.2h-0.6h-0.3h-0.4h-0.1h-0.1l-0.1-0.1h-0.2h-0.3l-0.1-0.1q-1.1-0.2-1.6-0.4l-1.9-0.9l-0.1-0.1h-0.1l-0.1-0.1v-0.1l-0.4-0.2l-0.1-0.1l-0.2-0.1q-0.5-0.4-1.2-1.1l-0.9-1.1v-0.1h-0.1v-0.1l-0.7-1.1q-0.3-0.7-0.5-1.2l-0.5-1.2v-0.1v-0.3l-0.1-0.1l-0.1-0.7l-0.2-3v-0.1v-0.3l0.1-0.2v-0.1q0 0-0.1 0l-0.3 0.5l-0.6 2.4l-0.1 2.1l0.1 0.1v0.5l0.5 2.5l0.5 1.2l0.2 0.2v0.1l0.1 0.1l0.3 0.6l1.3 1.7l0.8 0.8h0.1l0.2 0.2q0 0 0.1 0.2l0.2 0.1h0.1v0.1h0.1l0.1 0.1h0.1v0.1h0.1l0.2 0.2l2 1.1l0.3 0.1l0.2 0.1l0.5 0.2h0.1h0.2l0.7 0.3h0.1h0.1h0.1l0.2 0.1h0.1h0.1h0.1h0.3h0.1l0.1 0.1h1.7l2-0.1l3.1-0.6l7.3-2.3h0.2l2.9-0.7h0.1l1.5-0.2h0.1h0.1l0.2-0.1h0.2h0.2h1.4q0 0.1 0 0v-0.1q-0.1-0.1-0.4-0.2l-0.6-0.1l-2.5-0.4l-4.5 0.2z"/><path class="U" d="m149.9 62.7l0.6 0.1q0.3 0.1 0.4 0.2v0.1q0 0.1 0 0h-1.4h-0.2h-0.1l-0.2 0.1h-0.2h-0.1l-1.5 0.2h-0.1l-2.9 0.7h-0.2l-7.3 2.3l-3.1 0.6l-2 0.1h-1.7l-0.1-0.1h-0.1h-0.3h-0.1h-0.1l-0.3-0.1h-0.1h-0.1h-0.1l-0.7-0.3h-0.2h-0.1l-0.5-0.2l-0.2-0.1l-0.3-0.1l-2-1.1l-0.2-0.2h-0.1v-0.1h-0.1l-0.1-0.1h-0.1v-0.1h-0.1l-0.1-0.1q-0.2-0.2-0.2-0.2l-0.2-0.2h-0.1l-0.8-0.8l-1.3-1.7l-0.3-0.6l-0.1-0.1v-0.1l-0.2-0.2l-0.4-1.2l-0.6-2.5v-0.5l-0.1-0.1l0.1-2.1l0.6-2.4l0.3-0.5q0.1 0 0.1 0v0.1l-0.1 0.2v0.3v0.1l0.2 3l0.1 0.7l0.1 0.1v0.3v0.1l0.5 1.2q0.2 0.5 0.5 1.2l0.7 1.1v0.1h0.1v0.1l0.9 1.1q0.7 0.7 1.2 1.1l0.2 0.1l0.1 0.1l0.4 0.2v0.1h0.1v0.1h0.1l0.1 0.1l1.9 0.9q0.5 0.2 1.6 0.4l0.1 0.1h0.3h0.2l0.1 0.1h0.1h0.1h0.4h0.3h0.6h0.2h0.3l2.4-0.2l8.5-1.6l4.5-0.2z"/><path class="V" d="m147 42.7h-0.1h-0.1l-5.1-0.7h-0.2h-0.4q-1.7-0.1-2.4-0.2h-0.2h-0.2h-0.1q-0.4 0-0.5 0l-5.5-0.1v-0.1l1.7-0.7l0.8-0.3l3.6-0.9h0.4q0.7-0.1 2.4-0.2l3.7 0.1l1.7 0.2h0.1h0.1l0.6 0.2h0.1h0.1l0.7 0.1l0.1 0.1h0.2l2 0.5l0.7 0.3l0.2 0.1l0.3 0.1l3.3 1.5l3 1.9l1.5 1.4v0.1q0 0 0 0h-0.1l-1.7-0.6h-0.2l-0.2-0.1l-4.1-1.3h-0.3l-0.1-0.1l-0.7-0.1l-0.1-0.1z"/><path class="W" d="m175.3 70.4l0.2 0.3l0.3 0.6l0.1 0.1l1.2 2.9l1 3.6q0.5 1.7 0.7 2.8l0.2 1.9q2.5 7.6 3.6 3.3q1.1-4.3 1.7-7.2q1.4 13.5-2.1 26.8q-4-1.4-6.5 5.9q-0.8 2.2-1.4 5.1h-2.3q3.8-21.4-8.7-32.1q-12.5-10.7-29.4-7.5q-15.3 2.8-21.6-10.1q-0.3-0.6-0.6-1.3q-1.4 15.1-8.3 19q-6.8 4-7.8 13.1q-1 9-1.7 17.1q-6.9-6.2-13.1-23.3q-0.2-8 0.9-14.9q0.3 0.8 0.8 1.4q1 1.1 2.9 1.5q1.3 0.2 3.5 0.1q2.3-0.2 3.4-0.4q1.8-0.3 3.1-1.2q2.1-1.2 3.4-4.5q0.8-2 2.8-9.9q1.4-6.1 3.8-9.2q2.5-3.2 6.6-4.6q0.1 0 0.2-0.1q1-3.9 2.7-8.5q0.1-0.1 0.2-0.1q-0.9 3.9-1.6 10.1q-2.9 23.3 26.5 19.2q28.9-10.3 34.8 14.1q0.3-0.1 0.4 1.1v-15.1l0.1-0.1z"/><path class="L" d="m145.9 111.3l-1.6-2.9q8-1.7 15.8-0.7l-1.4 3.1q-4.4 0.8-12.8 0.5z"/><path class="H" d="m160.8 106.1l-0.7 1.6q-7.8-1-15.8 0.7l-0.7-1.5q7.6-2.8 17.2-0.8z"/><path class="X" d="m152.5 111.2q-1.4 0-2.4-1q-0.9-0.9-0.9-2.3q0-1.3 0.9-2.3q1-0.9 2.4-0.9q1.3 0 2.3 0.9q0.9 1 0.9 2.3q0 1.4-0.9 2.3q-1 1-2.3 1z"/><path  d="m152.5 109.6q-0.5 0-0.8-0.3q-0.3-0.4-0.3-0.8q0-0.5 0.3-0.9q0.3-0.3 0.8-0.3q0.5 0 0.9 0.3q0.3 0.4 0.3 0.9q0 0.4-0.3 0.8q-0.4 0.3-0.9 0.3z"/><path class="L" d="m154.6 109q-0.3 0-0.5-0.2q-0.3-0.2-0.3-0.5q0-0.3 0.3-0.7q0.2-0.2 0.5-0.2q0.3 0 0.6 0.2q0.3 0.4 0.3 0.7q0 0.3-0.3 0.5q-0.3 0.2-0.6 0.2z"/><path class="O" d="m158.1 101.3l2.7 4.8q-9.2-1.9-16.6 0.6l1.6-4.1q6.2-2.1 12.3-1.3z"/><path class="Y" d="m143.6 106.9q0.3-0.1 0.6-0.2q7.4-2.5 16.6-0.6"/><path class="X" d="m141.9 101.3v-4.2q11.7-1.7 19.1-0.8q3.3 0.5 5 4.9q-9.2-2.4-24.1 0.1z"/><path class="L" d="m105.9 110.8l-1.4-3.3q8-0.9 15.9 0.8l-1.6 3q-8.4 0.3-12.9-0.5z"/><path class="H" d="m121.1 106.9l-0.7 1.4q-7.9-1.7-15.9-0.8l-0.7-1.4q9.7-2 17.3 0.8z"/><path class="X" d="m112.2 111.2q-1.3 0-2.3-1q-1-0.9-1-2.3q0-1.3 1-2.3q1-0.9 2.3-0.9q1.4 0 2.3 0.9q1 1 1 2.3q0 1.4-1 2.3q-0.9 1-2.3 1z"/><path  d="m112.2 109.6q-0.4 0-0.8-0.3q-0.3-0.4-0.3-0.8q0-0.5 0.3-0.9q0.4-0.3 0.8-0.3q0.5 0 0.9 0.3q0.3 0.4 0.3 0.9q0 0.4-0.3 0.8q-0.4 0.3-0.9 0.3z"/><path class="L" d="m114.4 109q-0.4 0-0.6-0.2q-0.3-0.2-0.3-0.5q0-0.3 0.3-0.7q0.2-0.2 0.6-0.2q0.3 0 0.5 0.2q0.3 0.4 0.3 0.7q0 0.3-0.3 0.5q-0.2 0.2-0.5 0.2z"/><path class="O" d="m118.9 102.6l1.6 4.1q-7.4-2.5-16.7-0.6l2.8-4.8q6.1-0.8 12.3 1.3z"/><path class="Y" d="m103.8 106.1q9.3-1.9 16.7 0.6q0.3 0.1 0.6 0.2"/><path class="X" d="m98.7 101.2q1.7-4.4 4.9-4.9q7.5-0.9 19.2 0.8v4.2q-14.9-2.5-24.1-0.1z"/><path class="Z" d="m146.5 141.8q-2.3 0.5-8.5 1.9q-6.3 1.4-18.1-1.3l10.6-2.4l2.9 1.7l3.2-1.8z"/><path class="a" d="m142.1 147.6q-6.7 3.2-16.2 0.7l-6-5.9q11.8 2.7 18.1 1.3q6.2-1.4 8.5-1.9h0.1z"/><path class="b" d="m146.5 141.8l-8.2 2.3l-0.1 0.1h-0.1h-0.1l-1.5 0.3l-4.5 0.2q-0.2 0-0.6 0l-3.1-0.3q-0.2 0-2.3-0.4l-5.2-1.3l-0.2-0.1l-0.4-0.1l-0.3-0.1q0-0.1 0-0.1l9.7 1.1q0.2 0.1 0.6 0.1h0.6q1.6 0.1 2.5 0.1q1.3 0 2.4-0.1l1.4-0.2h0.1l0.6-0.1h0.1v-0.1l8-1.3l0.6-0.1q0.1-0.1 0.1 0q0 0.1-0.1 0.1z"/><path class="P" d="m138.5 131.3l-0.2 0.1l-0.4 0.2q-1.2 0.3-1.4 0.4l-0.4 0.1l-0.8 0.2h-0.1l-1.9 0.2q-1 0-1.6-0.1h-0.1h-0.1l-0.2-0.1h-0.1h-0.2l-0.8-0.2h-0.1h-0.3l-0.2-0.1l-1.5-0.4l-0.1-0.1l-0.4-0.2l-2-1.1l-0.3-0.2v-0.1q0-0.1 0 0l2.5 0.8h0.3l0.1 0.1l2 0.3l0.1 0.1h0.1l0.9 0.1h2l2.8-0.2l0.2-0.1l3.5-0.9q0.3-0.1 0.5-0.2l1-0.3h0.1q0 0 0 0q0 0.1 0 0.1l-1.3 0.8z"/><path class="L" d="m90 343.4v-25.1l8.1 0.6q-0.8 13.7 4.1 28.6z"/><path class="M" d="m187.8 323.8l8.1-52.5q7.9-26.6 48.8-53.7q-0.2 94.4-33 149.1q-54.1-4.7-108.1-15.3q-0.7-2-1.4-3.9q-4.9-14.9-4.1-28.6q0.1-1.9 0.3-3.7q43.3 0.7 89.3 8.6z"/><path class="M" d="m136.5 329.9q-0.1 3.1-0.1 6.3q-43.1 6.4-88 7.9q-15.1-5.4-16.1-33.9q5-51.1 12.8-94.1q17 29.2 27 63.7l-2.2 16.9h70.2q-0.1 0.4-0.2 1q-3 15.1-3.4 32.2z"/><path class="L" d="m149.4 324.1v4l-12.9 1.8q0.4-17.1 3.4-32.2l9.5 1.4v1.7v19.4z"/><path class="c" d="m185.5 305.6q3.7 11.2 2.9 18.5h-39v-3.9h25q6.6-5.6 10.3-14.8z"/><path class="F" d="m149.4 320.2v-19.4h17.8l17.5 4.6q-3.7 9.2-10.3 14.8z"/><path fill-rule="evenodd" class="F" d="m60.9 280.4l17.3 13.4l-17.3-13.4l-11.9-3.4q-3.6-1.3-3.1-3.4l18.2 2.8l16 13.3l5.8 7.4h-21.9l-12.2-8.7q-4.4-2.3-5.3-5.2q-4.3-5.1-2.7-7.6l5.2 1.4zm11.8 13.9l-14.2-10.2l-11.9-4l11.9 4z"/><path class="d" d="m43.9 275.3l17.2 4.4l0.2 0.1l17.1 13.8q0.1 0.2 0 0.3q-0.1 0.2-0.4 0.1l-17.5-12.9l-16.8-5.3q-0.2-0.1-0.1-0.3q0-0.3 0.3-0.2z"/><path class="d" d="m58.7 283.2l0.2 0.1l13.8 10.8q0.3 0.2 0.1 0.3q-0.1 0.2-0.3 0.1l-14.6-9.7l-11.4-4.5q-0.1-0.1-0.1-0.3q0-0.2 0.2-0.2z"/></svg>