<svg xmlns="http://www.w3.org/2000/svg" preserveAspectRatio="xMidYMid" viewBox="0 0 512 139">
  <path fill="#11110F" d="M99 59H56l-2 2v21l2 2h16v27l-14 1c-12 0-29-5-29-42 0-38 18-43 34-43 15 0 21 2 25 4l3-2 4-21V7c-2-1-12-7-37-7C29 0 0 12 0 71s34 68 62 68c24 0 38-10 38-10l1-2V61l-2-2ZM320 7c0-1 0-2-2-2h-24l-2 2v47h-38V7c0-1 0-2-2-2h-24l-2 2v127l2 2h24c2 0 2-1 2-2V80h38v54l2 2h24c2 0 2-1 2-2V7ZM144 24c0-8-7-15-15-15-9 0-16 7-16 15 0 9 7 16 16 16 8 0 15-7 15-16Zm-2 84V49c0-1 0-2-2-2h-24l-2 2v84c0 3 2 3 4 3h21c3 0 3-1 3-3v-25Zm271-61h-24l-2 2v62s-6 5-15 5c-8 0-11-4-11-13V49l-2-2h-24l-2 2v58c0 26 14 32 33 32 16 0 29-9 29-9l1 5 2 1h15l2-2V49l-2-2Zm56 69c-9-1-14-4-14-4V71s5-3 12-4c9 0 17 2 17 23 0 22-4 26-15 26Zm9-72c-14 0-23 6-23 6V7l-2-2h-24l-2 2v127l2 2h17l1-1 1-6s10 10 29 10c22 0 35-11 35-51 0-39-20-44-34-44Zm-266 3h-18V23c0-1 0-2-2-2h-24l-2 2v25l-13 3-1 2v15c0 1 0 2 2 2h12v38c0 28 20 30 33 30l14-2 2-2v-17l-2-2-7 1c-9 0-12-5-12-10V70h18l2-2V49l-2-2Z"/>
</svg>
