<svg xmlns="http://www.w3.org/2000/svg" viewBox="0 0 500 500">
  <path fill="#F0DB4F" d="M6 6h489v489H6z"/>
  <path fill="#323330" d="M454 378c-3-22-18-41-61-59-15-7-31-11-36-23-2-6-2-10-1-14 3-13 18-17 31-13 8 2 15 8 20 18l35-23-11-16c-13-14-30-21-58-21l-14 2c-14 4-27 11-35 21a64 64 0 0 0 11 91c28 21 69 25 74 45 5 24-17 31-40 29-16-4-26-12-35-27l-38 21c5 10 10 14 17 23 35 36 124 34 140-21 1-1 5-14 1-33zM271 230h-45l-1 118c0 26 2 49-2 56-7 14-24 12-32 9-8-4-12-9-17-17l-3-4-37 22c6 13 15 24 27 31 17 11 41 14 65 8 16-4 30-14 37-29 11-19 8-42 8-68V230z"/>
</svg>
