<svg xmlns="http://www.w3.org/2000/svg" enable-background="new" viewBox="0 0 424 201">
  <defs>
    <linearGradient id="b" x1="0" x2="423.5" y1="100.6" y2="100.6" gradientUnits="userSpaceOnUse">
      <stop offset="0" stop-color="#fff"/>
    </linearGradient>
    <linearGradient id="a" x1="207.2" x2="207.2" y1="-.2" y2="198.5" gradientUnits="userSpaceOnUse">
      <stop offset="0" stop-color="#2b5187"/>
      <stop offset=".5" stop-color="#254878"/>
      <stop offset="1" stop-color="#172e4e"/>
    </linearGradient>
    <filter id="c" color-interpolation-filters="sRGB">
      <feFlood flood-color="#000" flood-opacity=".5" result="flood"/>
      <feComposite in="flood" in2="SourceGraphic" operator="in" result="composite1"/>
      <feGaussianBlur in="composite1" result="blur" stdDeviation="1.6"/>
      <feOffset dx="2" dy="2" result="offset"/>
      <feComposite in="SourceGraphic" in2="offset" result="composite2"/>
    </filter>
  </defs>
  <g fill-rule="evenodd" stroke="#241f1c">
    <rect width="372.6" height="197.5" x="25" y="2" fill="url(#a)" stroke="none" rx="45.7" ry="31.6"/>
    <path fill="#fff" stroke-width=".7" d="M80 8h291V4H80z" opacity=".2"/>
  </g>
  <path fill="url(#b)" fill-rule="evenodd" d="M93 1C44 1 26 0 20 26c-2 8-1 19-1 35 0 4 1 11-1 16C13 93 5 91 1 91v20c10 0 17 7 17 14l1 46c0 13 9 22 18 27 9 3 18 2 26 3v-20c-11 1-19-2-21-12l-1-45c0-9-4-16-13-23 7-4 12-11 13-18l1-51c2-11 12-12 26-11l1 115c2 27 20 27 36 29l4-20c-3-2-8-1-12-5-2-2-4-3-4-8zm65 51c-26 0-47 20-49 55 0 37 17 56 53 58 20 0 29-3 37-7l-3-19c-34 10-58 6-61-23h71c-1-31-5-64-48-64zm2 20c11 1 20 9 22 26h-47c1-16 13-26 25-26zm120 5 4-20c-14-5-29-7-43-5-19 4-26 15-28 27-2 15 3 27 17 32 22 10 36 15 34 24-3 17-33 9-49 3l-5 21c13 6 30 9 56 4 12-4 23-9 23-30 1-21-16-29-30-33-27-8-26-20-15-27 11-4 25 1 36 4zm81 0 4-20c-14-5-29-7-43-4-19 3-26 14-28 26-2 15 3 27 17 32 22 10 36 15 34 24-3 18-33 9-49 3l-5 21c13 6 30 9 56 4 12-4 23-9 23-30 1-21-16-29-30-33-27-8-26-20-15-27 11-4 25 1 36 4zm-1-76c28-1 38 7 43 24 3 9 1 20 2 35v17c5 15 13 14 18 14v20c-11 0-17 6-18 14v46c0 12-9 22-19 26-8 4-17 3-25 3l-1-19c12 1 19-3 21-12l1-46c0-8 4-16 14-22-8-4-12-12-13-18l-1-51c-1-8-11-13-22-12z" filter="url(#c)"/>
</svg>
