<svg xmlns="http://www.w3.org/2000/svg" xml:space="preserve" viewBox="0 0 134 37">
  <path fill="#353128" d="m128 24-1-2h-1l-3 1 1 1h3l2 1 1 2-1 2-3 1-4-1-1-3h2v2h3l2-1-1-1h-3c-2-1-3-1-3-3s2-3 4-3l4 1 1 2h-2z"/>
  <path fill="#353128" d="m133 18-9-5h-2l-9 5-1 2v10l1 2 9 5h2l9-5 1-2V20l-1-2zm-1 12-9 5-4-2 1-2V20h-2v10l-1 2-1-1-2-1V20l9-6 9 6v10z"/>
  <path fill="#8CC644" d="M28 30V20l1-2 9-5h2l8 5 1 2v10l-1 2-9 5h-1l-9-5-1-2zm65-4v-2l2-1 2 1v2l-2 1-2-1z"/>
  <path fill="#353128" d="m77 3-6-3-1 1v14l-2-1h-2l-9 5v13l9 5h2l8-5 1-2V3zm-7 24-3 2-3-2v-4l3-2 3 2v4zM0 34V20l1-1 9-6h1l10 6v15l-6-3-1-1v-7l-3-2h-1l-3 2v8l-6 3H0zm85-15 9-5h2l9 5 1 1v2l-1 1-6 4v-3l-1-1-3-2-3 2-1 1v3h1l9 6-6 4-10-6-1-1V20l1-1z"/>
</svg>
