<svg xmlns="http://www.w3.org/2000/svg" viewBox="0 0 875 780">
  <g fill="#61dafb">
    <path d="M512 391a76 78 0 0 1-76 78 76 78 0 0 1-76-78 76 78 0 0 1 76-78 76 78 0 0 1 76 78z"/>
    <g fill-rule="evenodd">
      <path d="M278 477a438 180 60 0 1-61-466 438 180 60 0 1 376 292 438 180 60 0 1 61 466 438 180 60 0 1-376-292zm34-18a399 141 60 0 1-76-414 399 141 60 0 1 324 278 399 141 60 0 1 76 414 399 141 60 0 1-324-278z"/>
      <path d="M282 297A180 438 30 0 1 655 11a180 438 30 0 1-64 472 180 438 30 0 1-373 286 180 438 30 0 1 64-472zm33 21A141 399 30 0 1 636 45a141 399 30 0 1-79 419 141 399 30 0 1-321 273 141 399 30 0 1 79-419z"/>
      <path d="M441 211a180 438 90 0 1 434 180 180 438 90 0 1-441 180A180 438 90 0 1 0 391a180 438 90 0 1 441-180zm-2 38a141 399 90 0 1 397 142 141 399 90 0 1-403 141A141 399 90 0 1 37 391a141 399 90 0 1 402-142z"/>
    </g>
  </g>
</svg>
