<svg xmlns="http://www.w3.org/2000/svg" xml:space="preserve" viewBox="0 0 139 138">
  <linearGradient id="a" x1="212.8" x2="12.4" y1="-52.6" y2="117.4" gradientUnits="userSpaceOnUse">
    <stop offset="0" stop-color="#7a2d4e"/>
    <stop offset=".1" stop-color="#732b4c"/>
    <stop offset=".4" stop-color="#5f2646"/>
    <stop offset=".6" stop-color="#411e3d"/>
    <stop offset="1" stop-color="#171130"/>
    <stop offset="1" stop-color="#14102f"/>
  </linearGradient>
  <path fill="url(#a)" d="M118 138H21c-12 0-21-10-21-21V21C0 9 9 0 21 0h97c12 0 21 9 21 21v96c0 11-9 21-21 21z"/>
  <path fill="#FFF" d="m76 26 10 1 9 3 5 7 2 9c0 4-1 8-3 11-2 2-4 5-8 6 5 2 9 4 11 8 3 3 4 8 4 13 0 4-1 8-3 11-1 3-3 5-6 7l-9 4-11 2H37V26h39zm-2 33 7-2c3-2 4-4 4-8l-1-4-3-3-4-2H55v19h19zm1 35 5-1 4-1 3-4 1-5c0-4-1-7-4-9-2-2-5-3-9-3H55v23h20z"/>
</svg>
