<svg xmlns="http://www.w3.org/2000/svg" viewBox="0 0 414 122">
  <g fill="#FFF">
    <circle cx="123.5" cy="12.6" r="12.6"/>
    <circle cx="153.1" cy="12.6" r="12.6"/>
    <circle cx="196.6" cy="37.7" r="12.6"/>
    <circle cx="226.2" cy="37.7" r="12.6"/>
    <path d="M375 43a39 39 0 0 0-39 46h-20l5-30a10 10 0 0 0-20-3l-5 33h-9l4-26a10 10 0 0 0-20-3l-4 29h-9l3-18a10 10 0 0 0-20-3l-4 21h-18l3-18a10 10 0 0 0-20-3l-3 21h-30c4-6 6-12 6-19a37 37 0 1 0-69 19H79l1-7V10a10 10 0 0 0-20 0v72c0 13-14 22-26 18-9-2-15-11-14-20 1-10 8-17 18-18 7 0 11-4 11-10-1-6-5-10-12-9a39 39 0 0 0-16 74c15 8 35 5 48-8h278a39 39 0 0 0 67-27c0-22-18-39-39-39Zm-237 9a18 18 0 1 1 0 36 18 18 0 0 1 0-36Zm237 49a19 19 0 1 1 0-38 19 19 0 0 1 0 38Z"/>
  </g>
</svg>
