<svg xmlns="http://www.w3.org/2000/svg" viewBox="0 0 241 92">
  <g fill="none" fill-rule="evenodd">
    <path fill="#41B883" d="M86 0h21L54 92 0 0h22l32 55z"/>
    <path fill="#35495E" d="M66 0h20L54 55 22 0h19l13 21z"/>
    <path fill="#010101" d="m128 26 1-1 2-1 1 1 10 32 10-32 1-1 2 1 1 1-11 36c0 1-1 2-3 2l-3-2-11-36Zm29 28V38h3l1 2v14l2 4 4 2 5-2 2-4V38h4v16a10 10 0 0 1-11 10c-3 0-5-1-7-3s-3-5-3-7Zm25 0v-6c0-3 1-5 3-7s5-3 8-3l7 2c2 2 3 5 3 8v2l-1 1-2 1h-14v2c0 2 1 3 3 4 1 2 3 2 5 2h3l2-1 2-1 1 1 1 1-3 3-6 1c-4 0-6-1-9-3-2-2-3-4-3-7Zm4-5h12l1-2-2-4-4-2-5 2-2 4v2Zm20 12v-2l2-1 2 1 1 2-1 2-2 1-2-1v-2Zm4 13v-1l1-1c2 0 3 0 3-2l1-4V39l1-1h3v28l-1 7-6 3c-2 0-2-1-2-2Zm4-46 1-2h4l1 2-1 2-2 1-2-1-1-2Zm9 32v-1l1-1 2 1a10 10 0 0 0 6 1l4-1 1-2-2-3-3-1-4-2-3-2-2-4c0-2 1-4 3-5 1-2 3-2 6-2h6l2 3v1l-2 1-2-1-4-1-3 1-1 3 1 2 3 2 4 1 4 2 1 5-2 5-7 2-7-1-2-3Z"/>
  </g>
</svg>
