<svg version="1.2" xmlns="http://www.w3.org/2000/svg" viewBox="0 0 516 155" width="516" height="155"><style></style><path fill="#fca311" aria-label="بيرسونيو
"  d="m91.2 112h-16.31v-10.72h16.31zm-52.09 33.37q-5.29 0-11.33-0.76q-5.89-0.9-12.99-2.41l1.82-9.51q8 1.05 13.28 1.51q5.44 0.45 9.22 0.45q12.53 0 18.27-4.68q5.73-4.83 5.73-13.89v-72.79l6.04 3.93h-25.51q-8.76 0-13.59 2.11q-4.69 2.12-6.5 8.01q-1.81 5.74-1.81 16.91q0 11.17 1.81 17.06q1.81 5.74 6.5 7.85q4.83 2.12 13.59 2.12h19.47v10.72h-19.47q-13.14 0-20.54-3.93q-7.25-4.07-10.27-12.38q-2.87-8.45-2.87-21.44q0-12.99 2.87-21.29q3.02-8.46 10.27-12.38q7.4-4.08 20.54-4.08h31.25v79.43q0 9.36-4.38 16q-4.22 6.64-12.23 10.12q-8 3.32-19.17 3.32zm52.09-33.37v-10.72q1.96 0 2.42 1.51q0.6 1.36 0.6 3.77q0 2.42-0.6 3.93q-0.46 1.51-2.42 1.51zm44.39 0h-16.3v-10.72h16.3zm0 0v-10.72q1.97 0 2.42 1.51q0.6 1.36 0.6 3.77q0 2.42-0.6 3.93q-0.45 1.51-2.42 1.51zm-16.3 0h-28.09v-10.72h21.74l-5.43 4.38v-69.16h11.78zm-28.09-10.72v10.72q-1.96 0-2.57-1.51q-0.45-1.51-0.45-3.93q0-2.41 0.45-3.77q0.61-1.51 2.57-1.51zm17.82 37.9h-11.78v-13.59h11.78zm20.69 0h-11.78v-13.59h11.78zm33.97-27.18h-28.09v-10.72h21.75l-5.44 4.38v-69.16h11.78zm-28.09-10.72v10.72q-1.96 0-2.56-1.51q-0.46-1.51-0.46-3.93q0-2.41 0.46-3.77q0.6-1.51 2.56-1.51zm28.09-78.37h-11.78v-13.59h11.78zm99.51 89.09h-16.31v-10.72h16.31zm-52.1 33.37q-5.28 0-11.32-0.76q-5.89-0.9-12.99-2.41l1.82-9.52q8 1.06 13.28 1.51q5.44 0.46 9.21 0.46q12.54 0 18.28-4.68q5.73-4.84 5.73-13.9v-72.78l6.04 3.93h-25.52q-8.75 0-13.59 2.11q-4.68 2.12-6.49 8.01q-1.81 5.73-1.81 16.91q0 11.17 1.81 17.06q1.81 5.74 6.49 7.85q4.84 2.12 13.59 2.12h19.48v10.72h-19.48q-13.13 0-20.53-3.93q-7.25-4.08-10.27-12.38q-2.87-8.46-2.87-21.44q0-12.99 2.87-21.29q3.02-8.46 10.27-12.39q7.4-4.07 20.53-4.07h31.26v79.42q0 9.36-4.38 16.01q-4.23 6.64-12.23 10.12q-8 3.32-19.18 3.32zm52.1-33.37v-10.72q1.96 0 2.42 1.51q0.6 1.35 0.6 3.77q0 2.42-0.6 3.93q-0.46 1.51-2.42 1.51zm113.55 0h-34.12q-5.14 0-10.12-1.97q-4.83-1.96-9.36-6.19l7.7-8q3.47 2.87 6.19 4.23q2.72 1.21 5.59 1.21h26.87l-4.53 4.83v-36.09q0-2.72-0.6-7.7q-0.45-4.98-1.51-11.18q-0.91-6.34-2.27-12.68l11.48-1.96q1.06 5.28 2.11 11.78q1.06 6.49 1.82 12.38q0.75 5.73 0.75 9.36zm-82.9 0h-30.65v-10.72h22.05l-3.02 3.02v-52.7h11.62zm17.07 0h-17.07v-10.72h17.07q5.13 0 7.7-1.51q2.71-1.51 3.77-6.04q1.06-4.53 1.06-13.29v-36.39h11.78v36.39q0 11.78-2.57 18.72q-2.42 6.95-7.7 9.97q-5.29 2.87-14.04 2.87zm-47.72-10.72v10.72q-1.96 0-2.57-1.51q-0.45-1.51-0.45-3.93q0-2.41 0.45-3.77q0.61-1.51 2.57-1.51zm214.57 10.72h-28.09v-75.5h11.78v69.16l-5.43-4.38h21.74zm-28.09-49.83h-32.61v-10.87h32.61zm-60.24 83.2q-1.97 0-4.23-0.15q-2.12-0.31-4.23-0.46l1.36-10.72q2.11 0.15 3.92 0.45q1.82 0.16 3.18 0.16q7.09 0 11.47-5.29q4.38-5.44 4.38-14.95v-77.91h11.78v77.91q0 9.21-3.63 16.31q-3.47 6.95-9.66 10.87q-6.19 3.78-14.34 3.78zm88.33-33.37v-10.73q1.96 0 2.42 1.51q0.6 1.36 0.6 3.78q0 2.42-0.6 3.93q-0.46 1.51-2.42 1.51zm-26.58 27.18h-11.77v-13.59h11.77zm20.69 0h-11.78v-13.59h11.78zm33.98-27.18h-28.09v-10.73h21.74l-5.43 4.38v-69.15h11.78zm-28.09-10.73v10.73q-1.96 0-2.57-1.51q-0.45-1.51-0.45-3.93q0-2.42 0.45-3.78q0.61-1.51 2.57-1.51zm28.09 37.91h-11.78v-13.59h11.78z" /></svg>