<svg xmlns="http://www.w3.org/2000/svg" viewBox="0 0 120 60">
  <path fill="#007acc" d="M19 19h-6v18h-2V19H5v-2h14zm9 4-7 16c-1 3-3 4-5 4h-1v-2l1 1 3-2 1-3-6-14h3l4 11v1-1l4-11zm3 12v8h-2V23h2v2l5-2c2 0 3 0 4 2l2 5-2 5-5 2-4-2zm0-6v2l1 3 3 1 3-1 2-5-2-3-2-1-4 1-1 3zm24 1h-9l1 4 3 1 4-1v2l-4 1c-2 0-4 0-5-2l-2-5 2-5 5-2 4 1 1 5v1zm-2-1-1-3-2-1-3 1-1 3zm4 7v-3l1 1 2 1h2l3-1 1-2v-1a4 4 0 0 0-1-1l-2-1-1-1-2-1a8 8 0 0 1-1-1l-1-2-1-2a5 5 0 0 1 2-4l2-1a8 8 0 0 1 3 0l3 1v2l-4-1h-1l-1 1-1 1v2l1 1 1 1 1 1 2 1 2 2 1 1v4a5 5 0 0 1-2 2l-2 1h-6l-1-1zm23 0-4 1c-2 0-3 0-5-2s-1-3-1-5 0-4 2-5l5-2h3v3l-3-1-4 1-1 4 1 4 4 1 3-1v2zm9-11h-2l-2 1-1 4v7h-3V23h3v3l1-2 2-1h2zm2-6a1 1 0 0 1-1-1v-1h2a1 1 0 0 1 1 1l-1 1h-1zm1 18h-2V23h2zm4-2v8h-2V23h2v2l5-2c2 0 3 0 4 2l1 5-1 5-5 2-4-2zm0-6v2l1 3 3 1 3-1 1-5-1-3-3-1-3 1-1 3zm19 8h-2c-3 0-4-1-4-4v-8h-2v-2h2v-3l2-1v4h4v2h-4v8l1 2h3z"/>
</svg>
